<svg id="Layer_1" data-name="Layer 1" xmlns="http://www.w3.org/2000/svg" viewBox="0 0 374.33 114.59"><defs><style>.cls-1{fill:#fff;}.cls-2{fill:#84cc15;}</style></defs><title>logo-veterinaire</title><path class="cls-1" d="M26.45,12.6c-4.68,1.76-7.86,1.37-11-2.26-3.34-3.8-4.48-3.15-5.72,2-.9,3.71-1.57,7.45-.6,11.87,7.18-4.7,14.74-7.17,23.14-6.94,6.95.2,13.57,1.5,19.66,4.89a6.86,6.86,0,0,0,6.53.52c6.31-2.53,13-2.78,19.67-2.21,2.75.24,4.1,1.07,3.76,4.32-1.21,11.82-4.65,22.82-11.56,32.55-3.75,5.27-8.38,9.5-15.25,10.32-1.05.13-2.65,0-2.13,1.89.94,3.35,1,7.76,3.21,9.8,8.38,7.74,9.85,16.92,7.44,27.54a29.93,29.93,0,0,0,14.33-2.06c5.7-2.29,9-8.16,7.92-13.56S80,82.05,73.87,81.78C71,81.66,68,81.65,68.15,78s3.3-3.6,6-3.56c8.26.13,16.39,6.23,18.37,13.75a19.62,19.62,0,0,1-9.88,22.47,31.35,31.35,0,0,1-13.94,3.43c-5.32.21-10.66,0-16,.18-3,.12-3.24-.92-2.45-3.47a82.63,82.63,0,0,0,2.37-10.19,11.12,11.12,0,0,0-2.07-8.8c.28,7.24-2.46,13.55-5.3,19.85-1,2.18-6.79,3.77-9.91,2.47-2.76-1.15-1.22-3.43-.82-5.1.9-3.71,2.3-7.29,3.24-11,.51-2,1.47-4.12-.11-6.75-3.12,6.25-6.83,11.79-9.33,18.64-2.31-4.72-4.4-9.06-6.55-13.38-.48-1-.74-2.7-2.22-2.07-1.27.54-.5,1.86-.16,3,1.27,4.29,2.36,8.64,3.51,13,.71,2.67,0,4.15-3.1,3.81a39.62,39.62,0,0,0-5.49,0c-1.48,0-2.51-.23-2.8-2C9.67,101.1,7.1,90,7.52,78.63A28.31,28.31,0,0,1,12.2,64c1.2-1.84,1.67-3-.55-4.32C2.67,54.45.34,45.76,0,36.25A85.88,85.88,0,0,1,5.53,3C6.65,0,8-.72,11,.72A41.66,41.66,0,0,1,26.45,12.6ZM41.34,45c-1.62-.77-3.41-1-3.88-2-2.67-5.32-6.8-1.23-10.16-1.78-.48-.08-1.06,0-.91,1,.43,3.1.47,6.24.8,9.36.21,1.9,1,3.56,3,4.18s3.61-.59,4.74-2C37.12,51.17,39,48.27,41.34,45Zm27.21-1.58c3.78-4.66,5.09-9.53,6-14.59.18-1,.24-2.22-1.12-2.24a18.59,18.59,0,0,0-10.83,2.89c-1.52,1-.32,2,.34,2.85A42.24,42.24,0,0,1,68.55,43.47ZM56.92,40.39C55.6,35,53.29,34,49.57,36.79ZM39,32.11a5.75,5.75,0,0,0-3.82-1.7c-1,0-2.29.24-1.48,1.57.61,1,.09,3.52,2.41,2.73A3.73,3.73,0,0,0,39,32.11ZM17.24,28.9h8.47C23.24,25.77,20.74,25.09,17.24,28.9Z"/><path class="cls-1" d="M335.9,64.41c0-5,.14-10-.06-15-.11-2.78.74-4.23,3.58-3.57,6,1.4,12.44-2.87,18.33,1.33.49.35,2-.76,3.07-1.18,7.61-3,13.45.84,13.51,8.92s-.25,16,.12,24c.19,4.11-1.51,4.36-4.87,4.51-3.89.17-4.76-1.16-4.59-4.79.29-6.48.1-13,.07-19.47,0-2.13.27-5.08-2.66-5s-2.47,3.06-2.48,5.18c0,6.82-.3,13.66.09,20.46.25,4.33-2.37,3.41-4.72,3.45s-4.92.71-4.68-3.52c.39-6.8.16-13.64.06-20.46,0-2.1,0-5-2.73-5.08s-2.73,3-2.78,5c-.17,6.82-.35,13.66,0,20.46.23,4.14-2.1,3.66-4.62,3.59-2.33-.07-5.06.9-4.76-3.39C336.17,74.75,335.9,69.57,335.9,64.41Z"/><path class="cls-1" d="M292.72,46.33c0-4.46.12-8.46,0-12.44-.17-4.27,3-2.64,4.87-2.73S302,30,302,33.82c-.13,15.66-.08,31.33,0,47,0,2-.78,2.51-2.65,2.49a104.28,104.28,0,0,0-13.22.29c-4.79.54-7.73-2.28-7.9-7-.29-8.15-.32-16.33,0-24.48.16-4.47,3.1-6.71,7.65-6.9C288,45.13,290,45.82,292.72,46.33Zm.12,18.91c-.37-3.55.36-6.38-.63-9.12-.43-1.18-1.1-2.06-2.45-2.06s-2,1.1-2.18,2.26a53.49,53.49,0,0,0,.05,16.23c.19,1.17.8,2.35,2.13,2.38,1.58,0,2.33-1.3,2.51-2.6C292.63,69.74,292.7,67.1,292.84,65.24Z"/><path class="cls-1" d="M95,77.51c-7.43-4-8.8-8.6-6.52-15.66,2.85-8.83,4.42-18.09,6.18-27.23.59-3,1.89-3.71,4.67-3.61s4.48,0,5.21,3.53c3.09,15,6.62,29.89,9.89,44.85.27,1.25,1.95,3.83-.93,3.69-2.72-.13-6.5,2.44-8.18-2-.46-1.22-.32-2.67-.77-3.9-.74-2,.34-5.28-3.87-5C97.31,72.4,94,71.91,95,77.51ZM99.25,53c-.57,3-1.13,5.74-1.6,8.5-.15.86-1,2,.33,2.54a5.29,5.29,0,0,0,2.93.09c1.5-.35.76-1.58.56-2.4C100.79,58.92,100.85,55.89,99.25,53Z"/><path class="cls-2" d="M203.29,64.21a82.78,82.78,0,0,1,0-8.46c.77-7.43,5.12-10.86,13-10.49,6.87.32,10.6,4.39,10.75,11.71,0,.33,0,.66,0,1,.06,9.76.06,9.9-9.87,9.87-3.45,0-5,.93-4.37,4.51a2.82,2.82,0,0,0,2,2.58c1.19.34,1.83-.5,2.37-1.37,2.24-3.59,5.75-1.94,8.59-1.65,2.22.22,1.3,2.73,1,4.2-1,4.56-5.8,7.69-11.5,7.78S205,81,203.84,76.12A38.6,38.6,0,0,1,203.29,64.21Zm9.5-6.36c-.06,1.74,0,3.29,2.43,3.27,1.79,0,2.81-.52,2.68-2.49s-.07-4.31-2.72-4.38C213.07,54.21,212.83,56.15,212.78,57.86Z"/><path class="cls-1" d="M330.06,64.66c0,2.82.12,5.65,0,8.46-.34,6.83-4.21,10.44-11.21,10.61-7.46.19-11.65-3.16-12.35-10a88.82,88.82,0,0,1,0-18.87c.73-6.64,5.15-10,12.62-9.65,6.71.27,10.54,3.87,10.89,10.44C330.18,58.68,330,61.68,330.06,64.66Zm-9.27,0h0c0-2.48.09-5,0-7.43-.08-1.56-.76-3.14-2.52-3.17s-2.49,1.46-2.5,3.1c0,5,0,9.91,0,14.87,0,1.47.72,2.73,2.17,2.89,1.85.21,2.63-1.37,2.76-2.84C320.95,69.66,320.79,67.17,320.79,64.7Z"/><path class="cls-1" d="M172,64.59c0,3,.15,6,0,9-.4,6.5-4.29,10-11.1,10.19-7.47.22-11.72-3.12-12.42-9.88a86.27,86.27,0,0,1,.09-19.37c.77-6.29,5.22-9.5,12.49-9.24,6.55.24,10.47,3.69,10.9,9.87.22,3.14,0,6.3,0,9.46Zm-9.26.18h0c0-2.64.09-5.29,0-7.92a2.61,2.61,0,0,0-2.37-2.76c-1.79,0-2.55,1.38-2.56,3,0,5,0,9.91,0,14.87,0,1.47.66,2.73,2.11,3,1.88.29,2.68-1.3,2.82-2.74C162.94,69.74,162.77,67.25,162.77,64.77Z"/><path class="cls-2" d="M272,64.5c0,2.82.09,5.65,0,8.47-.26,6.69-4.25,10.61-11,10.94s-11.53-3.09-12.43-9.46a72.6,72.6,0,0,1,0-19.86c.9-6.66,5.42-9.72,13-9.32,6.58.35,10.3,4.1,10.54,10.75C272.12,58.85,272,61.67,272,64.5Zm-9.24.11h0c0-2.48.11-5,0-7.44-.09-1.56-.79-3-2.69-2.91-1.6.09-2.22,1.38-2.23,2.81-.05,5,0,9.93,0,14.9,0,1.44.57,2.78,2.1,2.93,1.85.19,2.66-1.38,2.8-2.85C263,69.58,262.79,67.08,262.79,64.6Z"/><path class="cls-2" d="M187.9,62.45c1-4.35,1.89-8.7,2.89-13,.82-3.54,4.14-5,8.46-3.72,3.59,1.1,1.29,3.54.87,5.28-2.33,9.52-4.95,19-7.22,28.49-.71,3-2,3.94-5.07,3.91S183,82.9,182.2,79.5c-2.31-9.86-5-19.63-7.46-29.46-.37-1.5-2.15-4.09.91-4.2,2.82-.11,7-2.39,8.36,2.41,1.31,4.62,2.14,9.38,3.18,14.07Z"/><path class="cls-2" d="M231.9,65.33c0-3,0-6,0-9,0-1.72.4-3.28-2.25-4.16s-2.27-5-.75-5.54c3.82-1.25,3-3.81,3-6.27-.07-3.19-.28-5.58,4.45-5.59s5,2.31,4.78,5.82c-.15,2.58-.73,5.48,3.55,5.6,1.83,0,1.17,2.07,1.24,3.28s.26,3-1.75,2.87c-3.43-.16-3.09,2.13-3.07,4.33,0,4-.05,8,0,12,.05,2.9-.54,5.85,3.78,7,2.22.58.91,3.8,1,5.82.08,2.39-2,1.74-3.31,1.81-7.24.35-10.49-2.7-10.61-9.93C231.86,70.66,231.9,68,231.9,65.33Z"/><path class="cls-1" d="M126.91,53c0,4.82-.09,9.65,0,14.47.08,3.12-1,6.44,2.77,8.8,1.61,1,.94,4.16.38,6.15-.62,2.21-2.8,1.1-4.3,1-5.57-.45-8-2.72-8.14-8.63-.26-13.63-.11-27.27-.21-40.91,0-4.62,3.37-2.47,5.38-2.76s4.3-.68,4.15,2.94C126.72,40.39,126.91,46.72,126.91,53Z"/><path class="cls-1" d="M132.47,54.12c0-6.49.26-13-.09-19.45-.25-4.62,2.74-3.42,5.18-3.6,2.75-.21,4.55-.07,4.45,3.76-.29,11.64-.12,23.28-.09,34.92,0,2.23-.43,4.35,2.26,6,2.36,1.46,1.44,4.71.81,6.92-.55,1.94-2.9.82-4.45.75-5-.24-7.72-2.95-7.83-7.87-.17-7.14,0-14.3,0-21.44Z"/><path class="cls-2" d="M226.15,31.26c-3.25,3.56-6,6.59-8.79,9.64-1.74,1.92-4,1.18-6.09,1.13-1.38,0-1.35-1-1-2.12C212.42,32.51,216.93,29.82,226.15,31.26Z"/></svg>